<svg id="Layer_1" data-name="Layer 1" xmlns="http://www.w3.org/2000/svg" viewBox="0 0 861.68 387.66"><defs><style>.cls-1{fill:#fff;}</style></defs><path class="cls-1" d="M968.11,727.49v-6.87q0-86.25,0-172.49c0-12.37-3.1-23.7-11.21-33.31a46.19,46.19,0,0,0-50.81-13.45,45.69,45.69,0,0,0-30.3,42.85q0,88.24.11,176.48v6.91c-2.21.13-4,.33-5.74.33-21.83,0-43.66-.15-65.49.13-5.06.07-6-1.74-6-6.33.13-57.49,0-115,.12-172.48,0-15-3.81-28.45-15.39-38.59-14.33-12.57-31-15.34-48.38-8.19s-27.85,20.86-28.17,40c-.6,35.49-.16,71-.23,106.49,0,15.6-3.26,30.4-11.89,43.68-13,20-31.58,31.44-55.08,35-2.56.39-5.24,0-8.19,0v-292h74.35v44.5l1.09.28a19.71,19.71,0,0,0,1.86-2.47c13.64-25.14,35.18-38.24,63.14-41.7a129.64,129.64,0,0,1,44.18,1.93q33.58,7.38,50.73,37.16c1.08,1.87,2.12,3.77,3.19,5.64.08.13.27.19.87.6a24.43,24.43,0,0,0,2.06-2.92c13.24-25.45,34.82-38.63,62.66-42.32,18.87-2.5,37.61-1.67,55.61,5.1,25.18,9.47,40.78,27.92,48.51,53.34,4.65,15.26,6.15,31,6.14,46.83q0,90.5,0,181v4.9Z" transform="translate(-529.06 -346.46)"/><path class="cls-1" d="M1314.8,652.6c-2,5.93-3.25,10.95-5.4,15.52-15.31,32.6-40.21,53.62-75.55,61.75-28.56,6.57-57,5.73-84.59-4-37.8-13.26-62.61-40.17-74.28-78-13.43-43.51-14.19-87.8,1.39-130.94,16.54-45.8,49.58-73,98.28-80,25.24-3.65,50.25-2.68,74.27,6.38,32.54,12.26,54.37,35.07,64.64,68.54a10.17,10.17,0,0,1,.35,2c0,.49,0,1,0,2H1309c-22.16,0-44.32-.05-66.48.06-3.39,0-5.76-.75-8.09-3.55-19.9-24-71.19-23-84.85,16.87-6.15,18-7.21,36.44-7.14,55.1.06,19,.85,37.83,7.17,56.13,13.26,38.36,63.55,39.4,81,19.41,5.58-6.37,11.28-7.61,18.89-7.47,19.43.37,38.87.11,58.31.1Z" transform="translate(-529.06 -346.46)"/><path class="cls-1" d="M604.25,434.87v286c0,7.33,0,7.34-7.42,7.35-20.49,0-41-.12-61.47.09-4.57,0-6.32-.9-6.3-6,.17-70.31.06-140.62.14-210.92,0-36.54,23.42-66,59-74.45C593.09,435.82,598.25,435.63,604.25,434.87Z" transform="translate(-529.06 -346.46)"/><path class="cls-1" d="M1315.59,727.73c.13-45.74,40.08-76.17,75.1-73.94v6.83c0,21,0,42,0,63,0,2.9-.34,4.7-3.92,4.68-22.83-.1-45.65-.06-68.48-.09A19.46,19.46,0,0,1,1315.59,727.73Z" transform="translate(-529.06 -346.46)"/><path class="cls-1" d="M529.63,346.46h73.45c4.23,31.9-28.43,75.76-73.45,74.22Z" transform="translate(-529.06 -346.46)"/></svg>