<svg width="80" height="37" viewBox="0 0 80 37" fill="none" xmlns="http://www.w3.org/2000/svg">
<g clip-path="url(#clip0)">
<path d="M40.7622 36.3669V35.729C40.7622 30.3906 40.7622 25.0525 40.7622 19.7147C40.7622 18.5663 40.4744 17.5144 39.7215 16.6222C39.1553 15.9592 38.4006 15.4845 37.5578 15.2614C36.715 15.0383 35.8242 15.0774 35.0042 15.3735C34.1833 15.6671 33.4728 16.2066 32.9695 16.9184C32.4661 17.6303 32.1943 18.4799 32.1911 19.3517C32.1911 24.8133 32.1945 30.2749 32.2013 35.7365V36.378C31.9961 36.3901 31.8299 36.4086 31.6684 36.4086C29.6416 36.4086 27.6149 36.3947 25.5882 36.4207C25.1184 36.4272 25.0311 36.2592 25.0311 35.833C25.0432 30.4955 25.0311 25.1562 25.0422 19.8197C25.0422 18.427 24.6885 17.1783 23.6134 16.2369C22.283 15.0699 20.7353 14.8127 19.1217 15.4765C17.5081 16.1403 16.5361 17.4132 16.5064 19.1902C16.4507 22.4851 16.4915 25.782 16.485 29.0769C16.485 30.5253 16.1823 31.8993 15.3811 33.1323C14.1742 34.9891 12.4492 36.0512 10.2674 36.3817C10.0297 36.4179 9.7809 36.3817 9.50702 36.3817V9.27188H16.4098V13.4033L16.511 13.4293C16.5745 13.3575 16.6322 13.2809 16.6837 13.2C17.9501 10.866 19.9499 9.64975 22.5457 9.32852C23.9132 9.15289 25.3006 9.2135 26.6475 9.5077C28.7259 9.96448 30.2959 11.1145 31.3574 12.9577C31.4576 13.1313 31.5542 13.3077 31.6535 13.4813C31.6609 13.4934 31.6786 13.499 31.7343 13.537C31.8046 13.4515 31.8685 13.3609 31.9255 13.2659C33.1548 10.9031 35.1583 9.67946 37.743 9.33687C39.4949 9.10477 41.2348 9.18183 42.906 9.81037C45.2437 10.6896 46.692 12.4025 47.4097 14.7626C47.8414 16.1793 47.9807 17.6407 47.9798 19.1103C47.9798 24.7118 47.9798 30.3133 47.9798 35.9147V36.3697L40.7622 36.3669Z" fill="#D14A1F"/>
<path d="M72.9496 29.4139C72.7639 29.9644 72.6478 30.4305 72.4482 30.8548C71.0268 33.8814 68.7151 35.833 65.434 36.5878C62.7825 37.1977 60.142 37.1198 57.5805 36.2164C54.0711 34.9853 51.7677 32.4869 50.6842 28.9747C49.4374 24.9352 49.3668 20.8232 50.8133 16.818C52.3489 12.5659 55.4164 10.0406 59.9378 9.39067C62.2811 9.0518 64.6031 9.14186 66.8332 9.983C69.8542 11.1212 71.881 13.239 72.8345 16.3464C72.8515 16.407 72.8623 16.4692 72.867 16.5321C72.867 16.5776 72.867 16.6249 72.867 16.7178H72.4111C70.3537 16.7178 68.2963 16.7131 66.239 16.7233C65.9242 16.7233 65.7042 16.6537 65.4879 16.3937C63.6403 14.1655 58.8785 14.2584 57.6102 17.96C57.0393 19.6311 56.9409 21.3431 56.9474 23.0756C56.9529 24.8396 57.0263 26.5878 57.613 28.2868C58.8441 31.8482 63.5131 31.9448 65.1332 30.0888C65.6513 29.4974 66.1805 29.3823 66.887 29.3953C68.6909 29.4297 70.4958 29.4055 72.3006 29.4046L72.9496 29.4139Z" fill="#D14A1F"/>
<path d="M6.9808 9.19922V35.752C6.9808 36.4325 6.9808 36.4335 6.29191 36.4344C4.38958 36.4344 2.48539 36.4232 0.584918 36.4427C0.160631 36.4427 -0.00184112 36.3592 1.57185e-05 35.8857C0.0157988 29.358 0.00558759 22.8303 0.0130149 16.3035C0.0130149 12.911 2.18737 10.1759 5.49069 9.3914C5.94468 9.28742 6.42375 9.26978 6.9808 9.19922Z" fill="#D14A1F"/>
<path d="M73.0229 36.3891C73.035 32.1425 76.744 29.3173 79.9954 29.5243V30.1585C79.9954 32.1081 79.9954 34.0578 79.9954 36.0075C79.9954 36.2767 79.9638 36.4439 79.6314 36.442C77.5118 36.4327 75.3932 36.4364 73.2736 36.4336C73.1891 36.4247 73.1054 36.4098 73.0229 36.3891Z" fill="#D14A1F"/>
<path d="M0.0529175 0.991211H6.87216C7.26488 3.95287 4.23266 8.02491 0.0529175 7.88194V0.991211Z" fill="#D14A1F"/>
</g>
<defs>
<clipPath id="clip0">
<rect width="80" height="35.9911" fill="white" transform="translate(0 0.991211)"/>
</clipPath>
</defs>
</svg>
